<?xml version="1.0" standalone="no"?>
<!DOCTYPE svg PUBLIC "-//W3C//DTD SVG 20010904//EN"
 "http://www.w3.org/TR/2001/REC-SVG-20010904/DTD/svg10.dtd">
<svg version="1.0" xmlns="http://www.w3.org/2000/svg"
 width="694.000000pt" height="586.000000pt" viewBox="0 0 694.000000 586.000000"
 preserveAspectRatio="xMidYMid meet">

<g transform="translate(0.000000,586.000000) scale(0.100000,-0.100000)"
fill="#000000" stroke="none">
<path d="M4447 5765 c-331 -63 -555 -308 -587 -642 -21 -225 32 -399 157 -513
73 -67 161 -107 382 -175 101 -31 212 -70 246 -86 83 -39 141 -102 150 -161
20 -136 -83 -236 -254 -246 -144 -8 -291 45 -443 161 l-88 66 -34 -62 c-90
-166 -206 -387 -206 -395 0 -12 185 -117 270 -152 356 -147 779 -125 1049 55
191 126 286 311 298 577 9 188 -19 298 -105 411 -86 113 -216 184 -518 282
-193 63 -207 69 -257 115 l-52 48 0 63 c0 79 21 113 96 154 122 66 312 36 476
-76 23 -16 44 -29 47 -29 4 0 226 427 226 436 0 9 -126 66 -219 98 -211 74
-469 102 -634 71z"/>
<path d="M1155 5754 c-124 -23 -206 -50 -323 -109 -306 -155 -524 -418 -601
-726 -30 -120 -44 -269 -36 -374 23 -312 126 -538 338 -742 348 -336 801 -427
1275 -257 l72 26 0 340 0 340 -70 -65 c-77 -73 -195 -137 -288 -156 -76 -16
-228 -14 -297 4 -91 24 -179 72 -249 136 -123 113 -175 228 -183 406 -7 140 6
213 58 320 171 358 674 431 970 140 l59 -57 -2 342 -3 342 -115 37 c-63 21
-155 45 -205 53 -110 19 -292 19 -400 0z"/>
<path d="M2240 4625 l0 -1105 630 0 630 0 0 240 0 240 -340 0 -340 0 0 195 0
195 320 0 320 0 0 240 0 240 -320 0 -320 0 0 190 0 190 340 0 340 0 0 240 0
240 -630 0 -630 0 0 -1105z"/>
<path d="M5760 4625 l0 -1105 285 0 285 0 0 1105 0 1105 -285 0 -285 0 0
-1105z"/>
<path d="M4390 2611 c-113 -37 -180 -128 -180 -246 0 -72 25 -133 67 -163 15
-11 72 -34 126 -52 132 -43 168 -90 112 -145 -45 -46 -162 -27 -232 37 l-22
20 -41 -82 c-33 -66 -39 -85 -28 -92 68 -46 173 -78 254 -78 66 0 164 30 209
64 53 40 86 119 86 204 1 129 -53 183 -233 236 -36 10 -64 26 -77 42 -27 34
-26 40 4 69 33 34 104 34 161 1 l41 -23 37 75 c21 41 33 79 29 83 -36 36 -251
71 -313 50z"/>
<path d="M140 2215 l0 -385 100 0 100 0 0 385 0 385 -100 0 -100 0 0 -385z"/>
<path d="M500 2215 l0 -385 105 0 105 0 2 230 3 229 180 -229 180 -230 103 0
102 0 0 385 0 385 -100 0 -100 0 -1 -152 c-1 -84 -4 -186 -8 -227 l-6 -74
-179 226 -179 227 -103 0 -104 0 0 -385z"/>
<path d="M1360 2520 l0 -79 83 -3 82 -3 3 -302 2 -303 100 0 100 0 0 305 0
305 85 0 85 0 0 80 0 80 -270 0 -270 0 0 -80z"/>
<path d="M1980 2215 l0 -385 220 0 220 0 0 85 0 85 -120 0 -121 0 3 68 3 67
113 3 112 3 0 79 0 79 -112 3 -113 3 0 65 0 65 118 3 117 3 0 79 0 80 -220 0
-220 0 0 -385z"/>
<path d="M2550 2215 l0 -385 100 0 100 0 0 148 1 147 96 -147 96 -148 125 0
c122 0 124 0 111 20 -8 10 -62 82 -121 158 l-106 139 33 12 c85 31 128 99 129
206 1 82 -23 136 -79 183 -56 45 -94 52 -299 52 l-186 0 0 -385z m337 201 c33
-39 31 -90 -6 -127 -25 -24 -37 -29 -80 -29 l-51 0 0 96 0 96 57 -4 c46 -4 61
-10 80 -32z"/>
<path d="M3280 2215 l0 -385 100 0 100 0 2 231 3 231 180 -230 180 -231 103 0
102 -1 0 385 0 385 -100 0 -100 0 -2 -232 -3 -231 -180 229 -180 229 -103 3
-102 3 0 -386z"/>
<path d="M4870 2215 l0 -385 100 0 100 0 0 160 0 160 145 0 145 0 0 -160 0
-160 100 0 100 0 0 385 0 385 -100 0 -100 0 0 -150 0 -151 -142 3 -143 3 -3
148 -3 147 -99 0 -100 0 0 -385z"/>
<path d="M5730 2215 l0 -385 100 0 100 0 0 385 0 385 -100 0 -100 0 0 -385z"/>
<path d="M6090 2216 l0 -386 100 0 100 0 0 129 0 129 113 4 c91 3 120 8 154
26 76 40 117 117 117 221 1 112 -41 187 -128 234 -38 20 -58 22 -248 25 l-208
3 0 -385z m333 213 c62 -28 62 -140 0 -168 -13 -6 -48 -11 -78 -11 l-55 0 0
95 0 95 55 0 c30 0 65 -5 78 -11z"/>
<path d="M200 745 l0 -665 170 0 170 0 0 260 0 260 190 0 190 0 0 145 0 145
-187 2 -188 3 -3 113 -3 112 211 0 210 0 0 145 0 145 -380 0 -380 0 0 -665z"/>
<path d="M1160 745 l0 -665 175 0 175 0 0 665 0 665 -175 0 -175 0 0 -665z"/>
<path d="M1790 745 l0 -665 170 0 170 0 2 402 3 402 254 -324 c140 -179 282
-360 315 -403 l61 -77 172 0 173 0 0 665 0 665 -169 0 -168 0 -9 -400 -9 -400
-61 78 c-33 42 -174 222 -314 400 l-253 322 -168 0 -169 0 0 -665z"/>
<path d="M3390 745 l0 -667 313 4 c345 5 358 7 492 76 48 25 95 61 151 117
252 252 267 622 38 902 -45 55 -133 122 -210 161 -116 59 -151 64 -481 69
l-303 5 0 -667z m576 348 c103 -40 165 -108 204 -224 18 -51 21 -80 17 -144
-6 -114 -36 -186 -107 -256 -70 -71 -148 -99 -271 -99 l-79 0 0 376 0 377 93
-5 c57 -4 112 -13 143 -25z"/>
<path d="M4770 745 l0 -665 375 0 375 0 0 145 0 145 -205 0 -205 0 0 115 0
115 195 0 195 0 0 145 0 145 -195 0 -195 0 0 115 0 115 205 0 205 0 0 145 0
145 -375 0 -375 0 0 -665z"/>
<path d="M5740 745 l0 -665 170 0 170 0 2 251 3 252 163 -252 164 -251 215 0
214 0 -113 148 c-62 81 -154 201 -205 267 -51 66 -93 123 -93 128 0 4 6 7 13
7 6 0 39 13 72 29 134 63 202 189 193 359 -7 113 -34 186 -99 257 -107 116
-192 135 -611 135 l-258 0 0 -665z m542 368 c92 -54 96 -199 7 -265 -29 -22
-164 -46 -192 -35 -15 6 -17 26 -17 166 l0 160 33 3 c53 5 135 -9 169 -29z"/>
</g>
</svg>
